<mxfile host="app.diagrams.net" agent="Mozilla/5.0 (Windows NT 10.0; Win64; x64) AppleWebKit/537.36 (KHTML, like Gecko) Chrome/127.0.0.0 Safari/537.36" version="24.7.6">
  <diagram id="C5RBs43oDa-KdzZeNtuy" name="Page-1">
    <mxGraphModel dx="1050" dy="549" grid="1" gridSize="12" guides="1" tooltips="1" connect="1" arrows="1" fold="1" page="1" pageScale="1" pageWidth="827" pageHeight="1169" math="0" shadow="0">
      <root>
        <mxCell id="WIyWlLk6GJQsqaUBKTNV-0" />
        <mxCell id="WIyWlLk6GJQsqaUBKTNV-1" parent="WIyWlLk6GJQsqaUBKTNV-0" />
        <mxCell id="reMe0v557-2b18pp9-0w-0" value="Login&amp;nbsp;" style="rounded=1;whiteSpace=wrap;html=1;fillColor=#4A2500;fillStyle=solid;strokeColor=#FFF8A8;glass=0;fontColor=#ffffff;opacity=80;" vertex="1" parent="WIyWlLk6GJQsqaUBKTNV-1">
          <mxGeometry x="36" y="120" width="132" height="72" as="geometry" />
        </mxCell>
        <mxCell id="reMe0v557-2b18pp9-0w-1" value="Check the user" style="rhombus;whiteSpace=wrap;html=1;fillColor=#28470A;strokeColor=#2D7600;fontColor=#ffffff;opacity=80;" vertex="1" parent="WIyWlLk6GJQsqaUBKTNV-1">
          <mxGeometry x="216" y="116" width="132" height="80" as="geometry" />
        </mxCell>
        <mxCell id="reMe0v557-2b18pp9-0w-2" value="" style="endArrow=none;html=1;rounded=0;exitX=1;exitY=0.5;exitDx=0;exitDy=0;entryX=0;entryY=0.5;entryDx=0;entryDy=0;" edge="1" parent="WIyWlLk6GJQsqaUBKTNV-1" source="reMe0v557-2b18pp9-0w-0" target="reMe0v557-2b18pp9-0w-1">
          <mxGeometry width="50" height="50" relative="1" as="geometry">
            <mxPoint x="480" y="326" as="sourcePoint" />
            <mxPoint x="530" y="276" as="targetPoint" />
          </mxGeometry>
        </mxCell>
      </root>
    </mxGraphModel>
  </diagram>
</mxfile>
